HIERARCHY
ROOT Hips
{
	OFFSET -0.001795 -0.223333 0.028219
	CHANNELS 6 Xposition Yposition Zposition Zrotation Yrotation Xrotation 
	JOINT LeftUpLeg
	{
		OFFSET 0.069520 -0.091406 -0.006815
		CHANNELS 3 Zrotation Yrotation Xrotation
		JOINT LeftLeg
		{
			OFFSET 0.034277 -0.375199 -0.004496
			CHANNELS 3 Zrotation Yrotation Xrotation
			JOINT LeftFoot
			{
				OFFSET -0.013596 -0.397961 -0.043693
				CHANNELS 3 Zrotation Yrotation Xrotation
				JOINT LeftToe
				{
					OFFSET 0.026358 -0.055791 0.119288
					CHANNELS 3 Zrotation Yrotation Xrotation
					End Site
					{
						OFFSET 0.000000 0.000000 0.000000
					}
				}
			}
		}
	}
	JOINT RightUpLeg
	{
		OFFSET -0.067670 -0.090522 -0.004320
		CHANNELS 3 Zrotation Yrotation Xrotation
		JOINT RightLeg
		{
			OFFSET -0.038290 -0.382569 -0.008850
			CHANNELS 3 Zrotation Yrotation Xrotation
			JOINT RightFoot
			{
				OFFSET 0.015774 -0.398415 -0.042312
				CHANNELS 3 Zrotation Yrotation Xrotation
				JOINT RightToe
				{
					OFFSET -0.025372 -0.048144 0.123348
					CHANNELS 3 Zrotation Yrotation Xrotation
					End Site
					{
						OFFSET 0.000000 0.000000 0.000000
					}
				}
			}
		}
	}
	JOINT Spine
	{
		OFFSET -0.002533 0.108963 -0.026696
		CHANNELS 3 Zrotation Yrotation Xrotation
		JOINT Spine1
		{
			OFFSET 0.005487 0.135180 0.001092
			CHANNELS 3 Zrotation Yrotation Xrotation
			JOINT Spine2
			{
				OFFSET 0.001457 0.052922 0.025425
				CHANNELS 3 Zrotation Yrotation Xrotation
				JOINT Neck
				{
					OFFSET -0.002778 0.213870 -0.042857
					CHANNELS 3 Zrotation Yrotation Xrotation
					JOINT Head
					{
						OFFSET 0.005152 0.064970 0.051349
						CHANNELS 3 Zrotation Yrotation Xrotation
						End Site
						{
							OFFSET 0.000000 0.000000 0.000000
						}
					}
				}
				JOINT LeftShoulder
				{
					OFFSET 0.078845 0.121749 -0.034090
					CHANNELS 3 Zrotation Yrotation Xrotation
					JOINT LeftArm
					{
						OFFSET 0.090977 0.030469 -0.008868
						CHANNELS 3 Zrotation Yrotation Xrotation
						JOINT LeftForeArm
						{
							OFFSET 0.259612 -0.012772 -0.027456
							CHANNELS 3 Zrotation Yrotation Xrotation
							JOINT LeftHand
							{
								OFFSET 0.249234 0.008986 -0.001171
								CHANNELS 3 Zrotation Yrotation Xrotation
								End Site
								{
									OFFSET 0.000000 0.000000 0.000000
								}
							}
						}
					}
				}
				JOINT RightShoulder
				{
					OFFSET -0.081759 0.118833 -0.038615
					CHANNELS 3 Zrotation Yrotation Xrotation
					JOINT RightArm
					{
						OFFSET -0.096012 0.032551 -0.009143
						CHANNELS 3 Zrotation Yrotation Xrotation
						JOINT RightForeArm
						{
							OFFSET -0.253742 -0.013329 -0.021401
							CHANNELS 3 Zrotation Yrotation Xrotation
							JOINT RightHand
							{
								OFFSET -0.255298 0.007772 -0.005559
								CHANNELS 3 Zrotation Yrotation Xrotation
								End Site
								{
									OFFSET 0.000000 0.000000 0.000000
								}
							}
						}
					}
				}
			}
		}
	}
}
MOTION
Frames: 6
Frame Time: 0.050000
0.000000 0.941313 0.000000 0.270903 -4.843290 -0.649296 3.849558 0.171713 2.731515 -2.190175 0.273376 -0.715451 4.148819 10.011411 6.317233 0.000000 0.000000 0.000000 -0.622709 0.089180 -0.765552 0.583234 0.083181 3.690390 -0.005063 -1.716351 3.024551 0.000000 0.000000 0.000000 6.394592 -0.287940 2.747385 -2.571030 1.265667 1.481395 -3.819434 1.859781 8.569003 5.563963 -1.955573 -18.945569 0.000000 0.000000 0.000000 -26.454571 -15.876252 7.507713 -50.039251 -9.624804 -2.403489 6.153373 -17.207114 -0.224170 0.000000 0.000000 0.000000 25.090705 6.645196 1.773417 59.874092 7.886069 -2.304363 -8.349510 19.071813 -0.533200 0.000000 0.000000 0.000000 
-0.000919 0.940798 -0.000872 -0.284045 -4.424912 -0.663000 4.836731 0.190500 3.565448 -1.926326 0.270990 -2.492291 3.705846 9.210315 6.225431 0.000000 0.000000 0.000000 0.164510 0.073029 -0.787656 0.683061 0.072876 3.797978 -0.574777 -2.665643 2.296819 0.000000 0.000000 0.000000 7.673251 -0.293203 2.502883 -2.466337 1.230251 2.629141 -5.178834 1.469565 7.412833 5.473425 -1.893134 -18.604069 0.000000 0.000000 0.000000 -26.112056 -17.041332 8.083938 -49.142799 -12.259588 -1.174521 8.804429 -16.766530 -0.604982 0.000000 0.000000 0.000000 25.075428 6.048929 1.431869 60.559096 6.585758 -2.885724 -8.075594 21.387205 -0.576551 0.000000 0.000000 0.000000 
-0.002017 0.940531 -0.002138 0.123280 -3.298417 -0.775623 4.834191 0.148391 3.053953 -2.473624 0.303613 -1.182350 3.219357 8.423323 6.462026 0.000000 0.000000 0.000000 0.057195 0.043509 -0.455728 0.576002 0.092533 4.049533 -0.437367 -2.491381 2.672134 0.000000 0.000000 0.000000 7.511432 -0.264580 2.241652 -2.154614 1.048078 1.327681 -5.884726 0.410801 8.578170 4.321206 -1.279072 -18.761399 0.000000 0.000000 0.000000 -24.801995 -16.653985 7.953698 -47.479525 -17.058370 0.549348 11.547716 -15.785082 -0.905565 0.000000 0.000000 0.000000 24.421176 6.028852 1.323211 59.854288 5.673965 -3.409143 -7.434290 20.848864 -0.464462 0.000000 0.000000 0.000000 
-0.003546 0.940260 -0.003349 -0.018871 -2.541390 -1.202774 5.352376 0.130248 3.095973 -2.648671 0.316458 -0.968508 3.275977 8.582943 6.527276 0.000000 0.000000 0.000000 0.629606 -0.026412 0.111055 0.732911 0.049563 3.545649 -0.785352 -3.244094 2.584473 0.000000 0.000000 0.000000 7.697680 -0.193297 1.621707 -2.121639 1.035379 2.524503 -6.089453 0.239836 8.070904 3.701302 -0.915526 -18.278748 0.000000 0.000000 0.000000 -23.832282 -19.208557 9.273022 -44.781551 -20.984974 1.998283 16.296403 -17.290369 -1.711547 0.000000 0.000000 0.000000 24.076558 5.203638 0.933415 60.104036 4.899994 -3.784210 -8.286290 22.446366 -0.647585 0.000000 0.000000 0.000000 
-0.005368 0.940388 -0.004796 -0.014721 -1.453797 -1.681579 5.304515 0.119292 3.055072 -2.163319 0.247518 -0.129861 2.909616 7.911052 6.253277 0.000000 0.000000 0.000000 0.919375 -0.083141 0.598596 0.305786 0.121005 4.008919 -0.984455 -3.604805 2.410726 0.000000 0.000000 0.000000 7.649305 -0.177738 1.556997 -1.771457 0.848223 2.173049 -6.558741 -0.103909 8.582193 3.286834 -0.687885 -17.883992 0.000000 0.000000 0.000000 -22.901502 -20.296948 9.731970 -41.153829 -26.316835 3.523717 22.463361 -19.263990 -2.953892 0.000000 0.000000 0.000000 23.139608 5.043648 0.995271 60.374936 4.699792 -3.978249 -7.792699 23.455991 -0.568098 0.000000 0.000000 0.000000 
-0.007243 0.940471 -0.005907 -0.029946 -0.657527 -1.863194 5.374375 0.102090 2.938610 -2.053084 0.223667 0.386988 2.533472 7.052064 5.463760 0.000000 0.000000 0.000000 1.056977 -0.167661 1.355619 0.522028 0.070768 3.539118 -1.197339 -3.850307 1.838666 0.000000 0.000000 0.000000 7.550844 -0.186040 1.664290 -1.652539 0.781337 2.260627 -6.539647 -0.360427 8.093326 2.693658 -0.380006 -17.090325 0.000000 0.000000 0.000000 -21.774514 -21.032822 9.931989 -38.898595 -29.686828 4.392601 30.083959 -21.532431 -4.798697 0.000000 0.000000 0.000000 22.360113 4.581292 0.800470 60.207704 4.306391 -4.125393 -8.185718 24.399332 -0.668016 0.000000 0.000000 0.000000 
